<mxfile host="app.diagrams.net" modified="2024-04-09T14:25:26.771Z" agent="Mozilla/5.0 (Windows NT 10.0; Win64; x64) AppleWebKit/537.36 (KHTML, like Gecko) Chrome/123.0.0.0 Safari/537.36" etag="XlXEmA_a9TyaK-DOHmRE" version="24.2.3" type="device">
  <diagram name="Página-1" id="2rUgQ_-CvbahNkBhxld9">
    <mxGraphModel dx="3269" dy="1957" grid="1" gridSize="40" guides="1" tooltips="1" connect="1" arrows="1" fold="1" page="1" pageScale="1" pageWidth="1169" pageHeight="827" math="0" shadow="0">
      <root>
        <mxCell id="0" />
        <mxCell id="1" parent="0" />
        <mxCell id="P5yW8lVXZRXt1Tff4Gg8-1" value="&lt;h1 style=&quot;margin-top: 0px;&quot;&gt;O que é?&lt;/h1&gt;&lt;p style=&quot;font-size: 18px;&quot;&gt;&lt;span style=&quot;color: rgb(51, 51, 51); font-family: AmazonEmber, &amp;quot;Helvetica Neue&amp;quot;, Helvetica, Arial, sans-serif; background-color: rgb(255, 255, 255);&quot;&gt;&lt;font style=&quot;font-size: 18px;&quot;&gt;&lt;font style=&quot;font-size: 18px;&quot;&gt;- O Python é uma &lt;/font&gt;&lt;font style=&quot;font-size: 18px;&quot;&gt;linguagem &lt;/font&gt;&lt;font style=&quot;font-size: 18px;&quot;&gt;de programação amplamente usada em aplicações da Web, desenvolvimento de software, ciência de dados e machine learning (ML).&lt;/font&gt;&lt;/font&gt;&lt;/span&gt;&lt;/p&gt;&lt;p style=&quot;font-size: 18px;&quot;&gt;&lt;span style=&quot;color: rgb(51, 51, 51); font-family: AmazonEmber, &amp;quot;Helvetica Neue&amp;quot;, Helvetica, Arial, sans-serif; background-color: rgb(255, 255, 255);&quot;&gt;&lt;font style=&quot;font-size: 18px;&quot;&gt;- Os desenvolvedores usam o Python porque é eficiente e fácil de aprender e pode ser executada em muitas plataformas diferentes.&amp;nbsp;&lt;/font&gt;&lt;/span&gt;&lt;/p&gt;&lt;p style=&quot;&quot;&gt;&lt;span style=&quot;color: rgb(51, 51, 51); font-family: AmazonEmber, &amp;quot;Helvetica Neue&amp;quot;, Helvetica, Arial, sans-serif; background-color: rgb(255, 255, 255);&quot;&gt;&lt;font style=&quot;font-size: 18px;&quot;&gt;- O software Python pode ser baixado gratuitamente, integra-se bem a todos os tipos de sistema e agiliza o desenvolvimento.&lt;/font&gt;&lt;/span&gt;&lt;br&gt;&lt;/p&gt;" style="text;html=1;whiteSpace=wrap;overflow=hidden;rounded=0;fillColor=#dae8fc;strokeColor=#6c8ebf;" vertex="1" parent="1">
          <mxGeometry x="-150" y="-140" width="360" height="375.62" as="geometry" />
        </mxCell>
        <mxCell id="P5yW8lVXZRXt1Tff4Gg8-2" value="" style="rounded=0;whiteSpace=wrap;html=1;" vertex="1" parent="1">
          <mxGeometry x="382" y="80.00999999999999" width="248" height="90" as="geometry" />
        </mxCell>
        <mxCell id="P5yW8lVXZRXt1Tff4Gg8-14" style="edgeStyle=orthogonalEdgeStyle;rounded=0;orthogonalLoop=1;jettySize=auto;html=1;exitX=0;exitY=0;exitDx=0;exitDy=0;" edge="1" parent="1" source="P5yW8lVXZRXt1Tff4Gg8-3" target="P5yW8lVXZRXt1Tff4Gg8-1">
          <mxGeometry relative="1" as="geometry" />
        </mxCell>
        <mxCell id="P5yW8lVXZRXt1Tff4Gg8-27" style="edgeStyle=orthogonalEdgeStyle;rounded=0;orthogonalLoop=1;jettySize=auto;html=1;exitX=1;exitY=0;exitDx=0;exitDy=0;entryX=0;entryY=0.75;entryDx=0;entryDy=0;" edge="1" parent="1" source="P5yW8lVXZRXt1Tff4Gg8-3" target="P5yW8lVXZRXt1Tff4Gg8-25">
          <mxGeometry relative="1" as="geometry" />
        </mxCell>
        <mxCell id="P5yW8lVXZRXt1Tff4Gg8-33" style="edgeStyle=orthogonalEdgeStyle;rounded=0;orthogonalLoop=1;jettySize=auto;html=1;exitX=0.75;exitY=0;exitDx=0;exitDy=0;entryX=0;entryY=1;entryDx=0;entryDy=0;" edge="1" parent="1" source="P5yW8lVXZRXt1Tff4Gg8-3" target="P5yW8lVXZRXt1Tff4Gg8-32">
          <mxGeometry relative="1" as="geometry" />
        </mxCell>
        <mxCell id="P5yW8lVXZRXt1Tff4Gg8-3" value="&lt;font style=&quot;font-size: 28px;&quot;&gt;PYTHON&lt;/font&gt;" style="text;html=1;align=center;verticalAlign=middle;whiteSpace=wrap;rounded=0;" vertex="1" parent="1">
          <mxGeometry x="390" y="74.39" width="232" height="101.25" as="geometry" />
        </mxCell>
        <mxCell id="P5yW8lVXZRXt1Tff4Gg8-8" value="&lt;h1 style=&quot;margin-top: 0px;&quot;&gt;&lt;span style=&quot;background-color: initial;&quot;&gt;Quem criou?&lt;/span&gt;&lt;/h1&gt;&lt;h1 style=&quot;margin-top: 0px;&quot;&gt;&lt;font face=&quot;Google Sans, arial, sans-serif&quot; color=&quot;#1f1f1f&quot;&gt;&lt;span style=&quot;font-size: 18px; font-weight: 400; background-color: rgb(255, 255, 255);&quot;&gt;Guido van Rossum, conhecido como o criador do Python, é uma figura icônica no mundo da programação. Nascido na Holanda em 31 de janeiro de 1956, ele é reconhecido por seu trabalho revolucionário na criação de uma das linguagens de programação mais populares e influentes do mundo.&lt;/span&gt;&lt;/font&gt;&lt;br&gt;&lt;/h1&gt;" style="text;html=1;whiteSpace=wrap;overflow=hidden;rounded=0;fillColor=#d5e8d4;strokeColor=#82b366;" vertex="1" parent="1">
          <mxGeometry x="-190" y="295" width="410" height="290" as="geometry" />
        </mxCell>
        <mxCell id="P5yW8lVXZRXt1Tff4Gg8-11" style="edgeStyle=orthogonalEdgeStyle;rounded=0;orthogonalLoop=1;jettySize=auto;html=1;exitX=0;exitY=0.75;exitDx=0;exitDy=0;entryX=1.002;entryY=0.106;entryDx=0;entryDy=0;entryPerimeter=0;" edge="1" parent="1" source="P5yW8lVXZRXt1Tff4Gg8-2" target="P5yW8lVXZRXt1Tff4Gg8-8">
          <mxGeometry relative="1" as="geometry" />
        </mxCell>
        <mxCell id="P5yW8lVXZRXt1Tff4Gg8-17" value="&lt;h1 style=&quot;margin-top: 0px;&quot;&gt;&lt;span style=&quot;background-color: initial;&quot;&gt;Que o torna especial?&lt;/span&gt;&lt;/h1&gt;&lt;h1 style=&quot;margin-top: 0px;&quot;&gt;&lt;font face=&quot;Google Sans, arial, sans-serif&quot; color=&quot;#1f1f1f&quot;&gt;&lt;span style=&quot;font-size: 18px; font-weight: 400; background-color: rgb(255, 255, 255);&quot;&gt;Facilidade de aprendizado. O Python é conhecido por sua sintaxe simples e legível, o que torna a linguagem fácil de aprender para programadores iniciantes.&lt;/span&gt;&lt;/font&gt;&lt;/h1&gt;&lt;h1 style=&quot;margin-top: 0px;&quot;&gt;&lt;font face=&quot;Google Sans, arial, sans-serif&quot; color=&quot;#1f1f1f&quot;&gt;&lt;span style=&quot;font-size: 18px; font-weight: 400; background-color: rgb(255, 255, 255);&quot;&gt;&amp;nbsp;A curva de aprendizado suave de Python permite que novos desenvolvedores entrem rapidamente no mundo da programação e se familiarizem com os conceitos fundamentais.&lt;/span&gt;&lt;/font&gt;&lt;br&gt;&lt;/h1&gt;" style="text;html=1;whiteSpace=wrap;overflow=hidden;rounded=0;fillColor=#e1d5e7;strokeColor=#9673a6;" vertex="1" parent="1">
          <mxGeometry x="690" y="220" width="410" height="310" as="geometry" />
        </mxCell>
        <mxCell id="P5yW8lVXZRXt1Tff4Gg8-19" style="edgeStyle=orthogonalEdgeStyle;rounded=0;orthogonalLoop=1;jettySize=auto;html=1;exitX=1;exitY=0.25;exitDx=0;exitDy=0;entryX=0.415;entryY=0;entryDx=0;entryDy=0;entryPerimeter=0;" edge="1" parent="1">
          <mxGeometry relative="1" as="geometry">
            <mxPoint x="630" y="100.00250000000023" as="sourcePoint" />
            <mxPoint x="868.1499999999996" y="214.68" as="targetPoint" />
            <Array as="points">
              <mxPoint x="630" y="104.68" />
              <mxPoint x="868" y="104.68" />
            </Array>
          </mxGeometry>
        </mxCell>
        <mxCell id="P5yW8lVXZRXt1Tff4Gg8-20" value="&lt;h1 style=&quot;margin-top: 0px;&quot;&gt;&lt;span style=&quot;background-color: initial;&quot;&gt;Objetivos&lt;/span&gt;&lt;/h1&gt;&lt;h1 style=&quot;margin-top: 0px;&quot;&gt;&lt;font face=&quot;Google Sans, arial, sans-serif&quot; color=&quot;#1f1f1f&quot;&gt;&lt;span style=&quot;font-size: 18px; font-weight: 400; background-color: rgb(255, 255, 255);&quot;&gt;Como uma linguagem de script, o Python pode ser utilizado para automatizar várias tarefas, tanto entre desenvolvedores quanto entre usuários comuns. Alguns exemplos das tarefas que os scripts de automação podem realizar são as seguintes: Resolver problemas matemáticos simples. Checar erros e duplicatas em arquivos.&lt;/span&gt;&lt;/font&gt;&lt;br&gt;&lt;/h1&gt;" style="text;html=1;whiteSpace=wrap;overflow=hidden;rounded=0;fillColor=#fff2cc;strokeColor=#d6b656;" vertex="1" parent="1">
          <mxGeometry x="260" y="410" width="410" height="290" as="geometry" />
        </mxCell>
        <mxCell id="P5yW8lVXZRXt1Tff4Gg8-21" style="edgeStyle=orthogonalEdgeStyle;rounded=0;orthogonalLoop=1;jettySize=auto;html=1;exitX=0.5;exitY=1;exitDx=0;exitDy=0;entryX=0.592;entryY=-0.002;entryDx=0;entryDy=0;entryPerimeter=0;" edge="1" parent="1" source="P5yW8lVXZRXt1Tff4Gg8-3" target="P5yW8lVXZRXt1Tff4Gg8-20">
          <mxGeometry relative="1" as="geometry" />
        </mxCell>
        <mxCell id="P5yW8lVXZRXt1Tff4Gg8-25" value="&lt;h1 style=&quot;margin-top: 0px;&quot;&gt;O que é?&lt;/h1&gt;&lt;p style=&quot;font-size: 18px;&quot;&gt;&lt;span style=&quot;color: rgb(51, 51, 51); font-family: AmazonEmber, &amp;quot;Helvetica Neue&amp;quot;, Helvetica, Arial, sans-serif; background-color: rgb(255, 255, 255);&quot;&gt;&lt;font style=&quot;font-size: 18px;&quot;&gt;&lt;font style=&quot;font-size: 18px;&quot;&gt;- O Python é uma &lt;/font&gt;&lt;font style=&quot;font-size: 18px;&quot;&gt;linguagem &lt;/font&gt;&lt;font style=&quot;font-size: 18px;&quot;&gt;de programação amplamente usada em aplicações da Web, desenvolvimento de software, ciência de dados e machine learning (ML).&lt;/font&gt;&lt;/font&gt;&lt;/span&gt;&lt;/p&gt;&lt;p style=&quot;font-size: 18px;&quot;&gt;&lt;span style=&quot;color: rgb(51, 51, 51); font-family: AmazonEmber, &amp;quot;Helvetica Neue&amp;quot;, Helvetica, Arial, sans-serif; background-color: rgb(255, 255, 255);&quot;&gt;&lt;font style=&quot;font-size: 18px;&quot;&gt;- Os desenvolvedores usam o Python porque é eficiente e fácil de aprender e pode ser executada em muitas plataformas diferentes.&amp;nbsp;&lt;/font&gt;&lt;/span&gt;&lt;/p&gt;&lt;p style=&quot;&quot;&gt;&lt;span style=&quot;color: rgb(51, 51, 51); font-family: AmazonEmber, &amp;quot;Helvetica Neue&amp;quot;, Helvetica, Arial, sans-serif; background-color: rgb(255, 255, 255);&quot;&gt;&lt;font style=&quot;font-size: 18px;&quot;&gt;- O software Python pode ser baixado gratuitamente, integra-se bem a todos os tipos de sistema e agiliza o desenvolvimento.&lt;/font&gt;&lt;/span&gt;&lt;br&gt;&lt;/p&gt;" style="text;html=1;whiteSpace=wrap;overflow=hidden;rounded=0;fillColor=#f5f5f5;strokeColor=#666666;fontColor=#333333;" vertex="1" parent="1">
          <mxGeometry x="960" y="-240" width="360" height="375.62" as="geometry" />
        </mxCell>
        <mxCell id="P5yW8lVXZRXt1Tff4Gg8-30" value="&lt;h1 style=&quot;margin-top: 0px;&quot;&gt;Onde devemos achar o Python em ação?&lt;/h1&gt;&lt;div style=&quot;font-size: 18px;&quot;&gt;&lt;font style=&quot;font-size: 18px; background-color: rgb(255, 255, 255);&quot;&gt;-Aplicações da Web&lt;/font&gt;&lt;/div&gt;&lt;div style=&quot;font-size: 18px;&quot;&gt;&lt;font style=&quot;font-size: 18px; background-color: rgb(255, 255, 255);&quot;&gt;-Desenvolvimento de software&lt;/font&gt;&lt;/div&gt;&lt;div style=&quot;font-size: 18px;&quot;&gt;&lt;font style=&quot;font-size: 18px; background-color: rgb(255, 255, 255);&quot;&gt;-Ciência de dados&lt;/font&gt;&lt;/div&gt;&lt;div style=&quot;font-size: 18px;&quot;&gt;&lt;font style=&quot;font-size: 18px; background-color: rgb(255, 255, 255);&quot;&gt;-Machine learning (ML)&lt;br&gt;&lt;/font&gt;&lt;/div&gt;&lt;p style=&quot;font-size: 18px;&quot;&gt;&lt;span style=&quot;color: rgb(71, 71, 71); font-family: &amp;quot;Google Sans&amp;quot;, arial, sans-serif; background-color: rgb(255, 255, 255);&quot;&gt;&lt;font style=&quot;font-size: 18px;&quot;&gt;&amp;nbsp;&lt;/font&gt;&lt;/span&gt;&lt;/p&gt;" style="text;html=1;whiteSpace=wrap;overflow=hidden;rounded=0;fillColor=#e1d5e7;strokeColor=#9673a6;" vertex="1" parent="1">
          <mxGeometry x="130" y="-400" width="360" height="190" as="geometry" />
        </mxCell>
        <mxCell id="P5yW8lVXZRXt1Tff4Gg8-31" style="edgeStyle=orthogonalEdgeStyle;rounded=0;orthogonalLoop=1;jettySize=auto;html=1;exitX=0.25;exitY=0;exitDx=0;exitDy=0;entryX=0.325;entryY=1.015;entryDx=0;entryDy=0;entryPerimeter=0;" edge="1" parent="1" source="P5yW8lVXZRXt1Tff4Gg8-3" target="P5yW8lVXZRXt1Tff4Gg8-30">
          <mxGeometry relative="1" as="geometry" />
        </mxCell>
        <mxCell id="P5yW8lVXZRXt1Tff4Gg8-32" value="&lt;h1 style=&quot;margin-top: 0px;&quot;&gt;Definição de Built- in:&lt;/h1&gt;&lt;div&gt;&lt;font style=&quot;font-size: 18px; background-color: rgb(255, 255, 255);&quot;&gt;Funções built-in são funções internas e nativas, ou seja, que já vem incorporadas na linguagem e estão sempre disponíveis para utilização. Assim não é necessário a importação. Basta utilizá-las diretamente no seu código quando desejar.&amp;nbsp;&lt;/font&gt;&lt;br&gt;&lt;/div&gt;" style="text;html=1;whiteSpace=wrap;overflow=hidden;rounded=0;fillColor=#f8cecc;strokeColor=#b85450;" vertex="1" parent="1">
          <mxGeometry x="550" y="-280" width="360" height="202.81" as="geometry" />
        </mxCell>
      </root>
    </mxGraphModel>
  </diagram>
</mxfile>
